<svg version="1.1" xmlns="http://www.w3.org/2000/svg" xmlns:xlink="http://www.w3.org/1999/xlink" x="0px" y="0px"
	 width="300px" height="200px" viewBox="0 0 300 200" xml:space="preserve">
	 <g id="curved_arrow" x="0" y="0" width="300" height="200" >
<path fill="#FFFFFF" d="M288.179,129.095L224.911,21.328c-2.702-4.603-9.181-3.067-11.598,2.75l-8.508,20.471l-2.114,5.083
	C183.994,42.134,40.603-9.474,10.181,157.869c0,0,87.18-90.712,158.037-25.289l-4.144,9.972l-8.508,20.472
	c-2.417,5.816,1.064,11.491,6.233,10.161l121.014-31.18C287.879,140.7,290.827,133.604,288.179,129.095"/>
<path fill="#2792C1" d="M280.216,126.94l-54.561-92.934c-2.329-3.97-7.917-2.645-10.002,2.371l-7.337,17.654l-1.821,4.383
	C190.371,51.949,59.371-3.911,19.471,142.188c0,0,82.8-76.799,157.296-12.242l-3.575,8.6l-7.336,17.653
	c-2.084,5.018,0.919,9.911,5.376,8.763l104.357-26.887C279.956,136.949,282.5,130.83,280.216,126.94"/>
<path fill="#2C9EC6" d="M273.443,125.857c1.936,3.203-0.22,8.242-3.92,9.168l-90.738,23.138c-3.775,0.945-6.319-3.085-4.554-7.216
	l6.217-14.537l3.026-7.081c-72.728-66.19-155.978-0.94-155.978-0.94c1.063-3.787,54.59-64.04,113.85-60.087
	C200.605,72.255,273.443,125.857,273.443,125.857"/>
	</g>
</svg>
