<svg version="1.1" xmlns="http://www.w3.org/2000/svg" xmlns:xlink="http://www.w3.org/1999/xlink" x="0px" y="0px"
	 width="300px" height="200px" viewBox="0 0 300 200" xml:space="preserve">
	 <g id="straight_arrow"  x="0" y="0" width="300" height="200">
<path fill="#FFFFFF" d="M278.479,87.548L169.91,5.69c-4.637-3.496-16.639,2.068-16.639,8.923v24.12L23.569,37.417
	c-4.783,0-8.697,3.914-8.697,8.697v98.08c0,4.784,3.914,8.698,8.697,8.698l129.702,1.316v24.121c0,6.854,12.002,9.785,16.639,6.289
	l108.568-81.857C283.021,99.333,283.021,90.975,278.479,87.548"/>
<path fill="#2993C1" d="M263.94,90.088l-91.098-68.686c-3.892-2.934-8.815,0.631-8.815,6.382v20.24H33.088
	c-4.014,0-7.298,3.284-7.298,7.297v82.299c0,4.014,3.284,7.298,7.298,7.298h130.939v20.239c0,5.752,4.924,9.316,8.815,6.383
	l91.098-68.688C267.753,99.978,267.753,92.963,263.94,90.088"/>
<path fill="#2E9EC6" d="M31.572,92.627v39.199c0,3.602,3.098,6.549,6.884,6.549H168.87v18.166c0,5.16,4.645,8.36,8.316,5.728
	l79.032-60.07c3.597-2.58,3.597-8.876,0-11.456"/>
	</g>
</svg>
